<?xml version="1.0" encoding="UTF-8"?>
<svg width="170px" height="430px" viewBox="0 0 170 430" version="1.1" xmlns="http://www.w3.org/2000/svg" xmlns:xlink="http://www.w3.org/1999/xlink">
    <title>dots</title>
    <g id="Page-1" stroke="none" stroke-width="1" fill="none" fill-rule="evenodd">
        <g id="dots" fill="#F9F4FB" fill-rule="nonzero">
            <circle id="Oval-Copy-197" cx="165" cy="425" r="5"></circle>
            <circle id="Oval-Copy-196" cx="145" cy="425" r="5"></circle>
            <circle id="Oval-Copy-195" cx="125" cy="425" r="5"></circle>
            <circle id="Oval-Copy-194" cx="105" cy="425" r="5"></circle>
            <circle id="Oval-Copy-193" cx="85" cy="425" r="5"></circle>
            <circle id="Oval-Copy-192" cx="65" cy="425" r="5"></circle>
            <circle id="Oval-Copy-191" cx="45" cy="425" r="5"></circle>
            <circle id="Oval-Copy-190" cx="25" cy="425" r="5"></circle>
            <circle id="Oval-Copy-189" cx="5" cy="425" r="5"></circle>
            <circle id="Oval-Copy-188" cx="165" cy="405" r="5"></circle>
            <circle id="Oval-Copy-187" cx="145" cy="405" r="5"></circle>
            <circle id="Oval-Copy-186" cx="125" cy="405" r="5"></circle>
            <circle id="Oval-Copy-185" cx="105" cy="405" r="5"></circle>
            <circle id="Oval-Copy-184" cx="85" cy="405" r="5"></circle>
            <circle id="Oval-Copy-183" cx="65" cy="405" r="5"></circle>
            <circle id="Oval-Copy-182" cx="45" cy="405" r="5"></circle>
            <circle id="Oval-Copy-181" cx="25" cy="405" r="5"></circle>
            <circle id="Oval-Copy-180" cx="5" cy="405" r="5"></circle>
            <circle id="Oval-Copy-179" cx="165" cy="385" r="5"></circle>
            <circle id="Oval-Copy-178" cx="145" cy="385" r="5"></circle>
            <circle id="Oval-Copy-177" cx="125" cy="385" r="5"></circle>
            <circle id="Oval-Copy-176" cx="105" cy="385" r="5"></circle>
            <circle id="Oval-Copy-175" cx="85" cy="385" r="5"></circle>
            <circle id="Oval-Copy-174" cx="65" cy="385" r="5"></circle>
            <circle id="Oval-Copy-173" cx="45" cy="385" r="5"></circle>
            <circle id="Oval-Copy-172" cx="25" cy="385" r="5"></circle>
            <circle id="Oval-Copy-171" cx="5" cy="385" r="5"></circle>
            <circle id="Oval-Copy-170" cx="165" cy="365" r="5"></circle>
            <circle id="Oval-Copy-169" cx="145" cy="365" r="5"></circle>
            <circle id="Oval-Copy-168" cx="125" cy="365" r="5"></circle>
            <circle id="Oval-Copy-167" cx="105" cy="365" r="5"></circle>
            <circle id="Oval-Copy-166" cx="85" cy="365" r="5"></circle>
            <circle id="Oval-Copy-165" cx="65" cy="365" r="5"></circle>
            <circle id="Oval-Copy-164" cx="45" cy="365" r="5"></circle>
            <circle id="Oval-Copy-163" cx="25" cy="365" r="5"></circle>
            <circle id="Oval-Copy-162" cx="5" cy="365" r="5"></circle>
            <circle id="Oval-Copy-161" cx="165" cy="345" r="5"></circle>
            <circle id="Oval-Copy-160" cx="145" cy="345" r="5"></circle>
            <circle id="Oval-Copy-159" cx="125" cy="345" r="5"></circle>
            <circle id="Oval-Copy-158" cx="105" cy="345" r="5"></circle>
            <circle id="Oval-Copy-157" cx="85" cy="345" r="5"></circle>
            <circle id="Oval-Copy-156" cx="65" cy="345" r="5"></circle>
            <circle id="Oval-Copy-155" cx="45" cy="345" r="5"></circle>
            <circle id="Oval-Copy-154" cx="25" cy="345" r="5"></circle>
            <circle id="Oval-Copy-153" cx="5" cy="345" r="5"></circle>
            <circle id="Oval-Copy-152" cx="165" cy="325" r="5"></circle>
            <circle id="Oval-Copy-151" cx="145" cy="325" r="5"></circle>
            <circle id="Oval-Copy-150" cx="125" cy="325" r="5"></circle>
            <circle id="Oval-Copy-149" cx="105" cy="325" r="5"></circle>
            <circle id="Oval-Copy-148" cx="85" cy="325" r="5"></circle>
            <circle id="Oval-Copy-147" cx="65" cy="325" r="5"></circle>
            <circle id="Oval-Copy-146" cx="45" cy="325" r="5"></circle>
            <circle id="Oval-Copy-145" cx="25" cy="325" r="5"></circle>
            <circle id="Oval-Copy-144" cx="5" cy="325" r="5"></circle>
            <circle id="Oval-Copy-143" cx="165" cy="305" r="5"></circle>
            <circle id="Oval-Copy-142" cx="145" cy="305" r="5"></circle>
            <circle id="Oval-Copy-141" cx="125" cy="305" r="5"></circle>
            <circle id="Oval-Copy-140" cx="105" cy="305" r="5"></circle>
            <circle id="Oval-Copy-139" cx="85" cy="305" r="5"></circle>
            <circle id="Oval-Copy-138" cx="65" cy="305" r="5"></circle>
            <circle id="Oval-Copy-137" cx="45" cy="305" r="5"></circle>
            <circle id="Oval-Copy-136" cx="25" cy="305" r="5"></circle>
            <circle id="Oval-Copy-135" cx="5" cy="305" r="5"></circle>
            <circle id="Oval-Copy-134" cx="165" cy="285" r="5"></circle>
            <circle id="Oval-Copy-133" cx="145" cy="285" r="5"></circle>
            <circle id="Oval-Copy-132" cx="125" cy="285" r="5"></circle>
            <circle id="Oval-Copy-131" cx="105" cy="285" r="5"></circle>
            <circle id="Oval-Copy-130" cx="85" cy="285" r="5"></circle>
            <circle id="Oval-Copy-129" cx="65" cy="285" r="5"></circle>
            <circle id="Oval-Copy-128" cx="45" cy="285" r="5"></circle>
            <circle id="Oval-Copy-127" cx="25" cy="285" r="5"></circle>
            <circle id="Oval-Copy-126" cx="5" cy="285" r="5"></circle>
            <circle id="Oval-Copy-125" cx="165" cy="265" r="5"></circle>
            <circle id="Oval-Copy-124" cx="145" cy="265" r="5"></circle>
            <circle id="Oval-Copy-123" cx="125" cy="265" r="5"></circle>
            <circle id="Oval-Copy-122" cx="105" cy="265" r="5"></circle>
            <circle id="Oval-Copy-121" cx="85" cy="265" r="5"></circle>
            <circle id="Oval-Copy-120" cx="65" cy="265" r="5"></circle>
            <circle id="Oval-Copy-119" cx="45" cy="265" r="5"></circle>
            <circle id="Oval-Copy-118" cx="25" cy="265" r="5"></circle>
            <circle id="Oval-Copy-117" cx="5" cy="265" r="5"></circle>
            <circle id="Oval-Copy-116" cx="165" cy="245" r="5"></circle>
            <circle id="Oval-Copy-115" cx="145" cy="245" r="5"></circle>
            <circle id="Oval-Copy-114" cx="125" cy="245" r="5"></circle>
            <circle id="Oval-Copy-113" cx="105" cy="245" r="5"></circle>
            <circle id="Oval-Copy-112" cx="85" cy="245" r="5"></circle>
            <circle id="Oval-Copy-111" cx="65" cy="245" r="5"></circle>
            <circle id="Oval-Copy-110" cx="45" cy="245" r="5"></circle>
            <circle id="Oval-Copy-109" cx="25" cy="245" r="5"></circle>
            <circle id="Oval-Copy-108" cx="5" cy="245" r="5"></circle>
            <circle id="Oval-Copy-107" cx="165" cy="225" r="5"></circle>
            <circle id="Oval-Copy-106" cx="145" cy="225" r="5"></circle>
            <circle id="Oval-Copy-105" cx="125" cy="225" r="5"></circle>
            <circle id="Oval-Copy-104" cx="105" cy="225" r="5"></circle>
            <circle id="Oval-Copy-103" cx="85" cy="225" r="5"></circle>
            <circle id="Oval-Copy-102" cx="65" cy="225" r="5"></circle>
            <circle id="Oval-Copy-101" cx="45" cy="225" r="5"></circle>
            <circle id="Oval-Copy-100" cx="25" cy="225" r="5"></circle>
            <circle id="Oval-Copy-99" cx="5" cy="225" r="5"></circle>
            <circle id="Oval-Copy-98" cx="165" cy="205" r="5"></circle>
            <circle id="Oval-Copy-97" cx="145" cy="205" r="5"></circle>
            <circle id="Oval-Copy-96" cx="125" cy="205" r="5"></circle>
            <circle id="Oval-Copy-95" cx="105" cy="205" r="5"></circle>
            <circle id="Oval-Copy-94" cx="85" cy="205" r="5"></circle>
            <circle id="Oval-Copy-93" cx="65" cy="205" r="5"></circle>
            <circle id="Oval-Copy-92" cx="45" cy="205" r="5"></circle>
            <circle id="Oval-Copy-91" cx="25" cy="205" r="5"></circle>
            <circle id="Oval-Copy-90" cx="5" cy="205" r="5"></circle>
            <circle id="Oval-Copy-89" cx="165" cy="185" r="5"></circle>
            <circle id="Oval-Copy-88" cx="145" cy="185" r="5"></circle>
            <circle id="Oval-Copy-87" cx="125" cy="185" r="5"></circle>
            <circle id="Oval-Copy-86" cx="105" cy="185" r="5"></circle>
            <circle id="Oval-Copy-85" cx="85" cy="185" r="5"></circle>
            <circle id="Oval-Copy-84" cx="65" cy="185" r="5"></circle>
            <circle id="Oval-Copy-83" cx="45" cy="185" r="5"></circle>
            <circle id="Oval-Copy-82" cx="25" cy="185" r="5"></circle>
            <circle id="Oval-Copy-81" cx="5" cy="185" r="5"></circle>
            <circle id="Oval-Copy-80" cx="165" cy="165" r="5"></circle>
            <circle id="Oval-Copy-79" cx="145" cy="165" r="5"></circle>
            <circle id="Oval-Copy-78" cx="125" cy="165" r="5"></circle>
            <circle id="Oval-Copy-77" cx="105" cy="165" r="5"></circle>
            <circle id="Oval-Copy-76" cx="85" cy="165" r="5"></circle>
            <circle id="Oval-Copy-75" cx="65" cy="165" r="5"></circle>
            <circle id="Oval-Copy-74" cx="45" cy="165" r="5"></circle>
            <circle id="Oval-Copy-73" cx="25" cy="165" r="5"></circle>
            <circle id="Oval-Copy-72" cx="5" cy="165" r="5"></circle>
            <circle id="Oval-Copy-71" cx="165" cy="145" r="5"></circle>
            <circle id="Oval-Copy-70" cx="145" cy="145" r="5"></circle>
            <circle id="Oval-Copy-69" cx="125" cy="145" r="5"></circle>
            <circle id="Oval-Copy-68" cx="105" cy="145" r="5"></circle>
            <circle id="Oval-Copy-67" cx="85" cy="145" r="5"></circle>
            <circle id="Oval-Copy-66" cx="65" cy="145" r="5"></circle>
            <circle id="Oval-Copy-65" cx="45" cy="145" r="5"></circle>
            <circle id="Oval-Copy-64" cx="25" cy="145" r="5"></circle>
            <circle id="Oval-Copy-63" cx="5" cy="145" r="5"></circle>
            <circle id="Oval-Copy-62" cx="165" cy="125" r="5"></circle>
            <circle id="Oval-Copy-61" cx="145" cy="125" r="5"></circle>
            <circle id="Oval-Copy-60" cx="125" cy="125" r="5"></circle>
            <circle id="Oval-Copy-59" cx="105" cy="125" r="5"></circle>
            <circle id="Oval-Copy-58" cx="85" cy="125" r="5"></circle>
            <circle id="Oval-Copy-57" cx="65" cy="125" r="5"></circle>
            <circle id="Oval-Copy-56" cx="45" cy="125" r="5"></circle>
            <circle id="Oval-Copy-55" cx="25" cy="125" r="5"></circle>
            <circle id="Oval-Copy-54" cx="5" cy="125" r="5"></circle>
            <circle id="Oval-Copy-53" cx="165" cy="105" r="5"></circle>
            <circle id="Oval-Copy-52" cx="145" cy="105" r="5"></circle>
            <circle id="Oval-Copy-51" cx="125" cy="105" r="5"></circle>
            <circle id="Oval-Copy-50" cx="105" cy="105" r="5"></circle>
            <circle id="Oval-Copy-49" cx="85" cy="105" r="5"></circle>
            <circle id="Oval-Copy-48" cx="65" cy="105" r="5"></circle>
            <circle id="Oval-Copy-47" cx="45" cy="105" r="5"></circle>
            <circle id="Oval-Copy-46" cx="25" cy="105" r="5"></circle>
            <circle id="Oval-Copy-45" cx="5" cy="105" r="5"></circle>
            <circle id="Oval-Copy-44" cx="165" cy="85" r="5"></circle>
            <circle id="Oval-Copy-43" cx="145" cy="85" r="5"></circle>
            <circle id="Oval-Copy-42" cx="125" cy="85" r="5"></circle>
            <circle id="Oval-Copy-41" cx="105" cy="85" r="5"></circle>
            <circle id="Oval-Copy-40" cx="85" cy="85" r="5"></circle>
            <circle id="Oval-Copy-39" cx="65" cy="85" r="5"></circle>
            <circle id="Oval-Copy-38" cx="45" cy="85" r="5"></circle>
            <circle id="Oval-Copy-37" cx="25" cy="85" r="5"></circle>
            <circle id="Oval-Copy-36" cx="5" cy="85" r="5"></circle>
            <circle id="Oval-Copy-35" cx="165" cy="65" r="5"></circle>
            <circle id="Oval-Copy-34" cx="145" cy="65" r="5"></circle>
            <circle id="Oval-Copy-33" cx="125" cy="65" r="5"></circle>
            <circle id="Oval-Copy-32" cx="105" cy="65" r="5"></circle>
            <circle id="Oval-Copy-31" cx="85" cy="65" r="5"></circle>
            <circle id="Oval-Copy-30" cx="65" cy="65" r="5"></circle>
            <circle id="Oval-Copy-29" cx="45" cy="65" r="5"></circle>
            <circle id="Oval-Copy-28" cx="25" cy="65" r="5"></circle>
            <circle id="Oval-Copy-27" cx="5" cy="65" r="5"></circle>
            <circle id="Oval-Copy-26" cx="165" cy="45" r="5"></circle>
            <circle id="Oval-Copy-25" cx="145" cy="45" r="5"></circle>
            <circle id="Oval-Copy-24" cx="125" cy="45" r="5"></circle>
            <circle id="Oval-Copy-23" cx="105" cy="45" r="5"></circle>
            <circle id="Oval-Copy-22" cx="85" cy="45" r="5"></circle>
            <circle id="Oval-Copy-21" cx="65" cy="45" r="5"></circle>
            <circle id="Oval-Copy-20" cx="45" cy="45" r="5"></circle>
            <circle id="Oval-Copy-19" cx="25" cy="45" r="5"></circle>
            <circle id="Oval-Copy-18" cx="5" cy="45" r="5"></circle>
            <circle id="Oval-Copy-17" cx="165" cy="25" r="5"></circle>
            <circle id="Oval-Copy-16" cx="145" cy="25" r="5"></circle>
            <circle id="Oval-Copy-15" cx="125" cy="25" r="5"></circle>
            <circle id="Oval-Copy-14" cx="105" cy="25" r="5"></circle>
            <circle id="Oval-Copy-13" cx="85" cy="25" r="5"></circle>
            <circle id="Oval-Copy-12" cx="65" cy="25" r="5"></circle>
            <circle id="Oval-Copy-11" cx="45" cy="25" r="5"></circle>
            <circle id="Oval-Copy-10" cx="25" cy="25" r="5"></circle>
            <circle id="Oval-Copy-9" cx="5" cy="25" r="5"></circle>
            <circle id="Oval-Copy-8" cx="165" cy="5" r="5"></circle>
            <circle id="Oval-Copy-7" cx="145" cy="5" r="5"></circle>
            <circle id="Oval-Copy-6" cx="125" cy="5" r="5"></circle>
            <circle id="Oval-Copy-5" cx="105" cy="5" r="5"></circle>
            <circle id="Oval-Copy-4" cx="85" cy="5" r="5"></circle>
            <circle id="Oval-Copy-3" cx="65" cy="5" r="5"></circle>
            <circle id="Oval-Copy-2" cx="45" cy="5" r="5"></circle>
            <circle id="Oval-Copy" cx="25" cy="5" r="5"></circle>
            <circle id="Oval" cx="5" cy="5" r="5"></circle>
        </g>
    </g>
</svg>